<svg width="35" height="35" viewBox="0 0 35 35" fill="none" xmlns="http://www.w3.org/2000/svg">
<path d="M17.0221 0.478027C7.65994 0.478027 0 8.13797 0 17.5001C0 26.8623 7.65994 34.5222 17.0221 34.5222C26.3842 34.5222 34.0442 26.8623 34.0442 17.5001C34.0442 8.13797 26.3842 0.478027 17.0221 0.478027ZM10.043 23.8834C8.17061 23.8834 6.63862 22.3514 6.63862 20.479C6.63862 18.6066 8.17061 17.0746 10.043 17.0746C11.9155 17.0746 13.4475 18.6066 13.4475 20.479C13.4475 22.3514 11.9155 23.8834 10.043 23.8834ZM24.2565 22.9472C22.7245 23.8834 20.6818 23.2876 19.7456 21.7556L14.9794 13.4999C14.0432 11.9679 14.639 9.92529 16.171 8.98907C17.703 8.05286 19.7456 8.64863 20.6818 10.1806L25.448 18.4363C26.3842 20.0534 25.7885 22.0961 24.2565 22.9472Z" fill="#232E35"/>
</svg>
