<svg width="71" height="29" viewBox="0 0 71 29" fill="none" xmlns="http://www.w3.org/2000/svg">
<path d="M52.8857 28.5223C52.4606 28.5223 52.0451 28.4837 51.6393 28.4064C51.2335 28.3484 50.8664 28.2421 50.5379 28.0875V24.8991C50.7891 24.9571 51.0886 25.0151 51.4364 25.073C51.8036 25.131 52.1417 25.16 52.4509 25.16C53.3205 25.16 53.9485 24.9571 54.335 24.5513C54.7408 24.1455 55.0983 23.6141 55.4074 22.9571L56.4509 20.5223L56.3929 23.7107L49.5234 6.34839H53.6103L58.4219 19.16H56.9727L61.7553 6.34839H65.8712L59.0016 23.7107C58.5958 24.7349 58.1031 25.6044 57.5234 26.3194C56.9437 27.0344 56.2673 27.5755 55.4944 27.9426C54.7408 28.3291 53.8712 28.5223 52.8857 28.5223Z" fill="#232E35"/>
<path d="M34.0739 22.1164V6.34832H37.6391V9.44977L37.3493 8.89904C37.7164 7.95218 38.3155 7.23721 39.1464 6.75411C39.9966 6.2517 40.9821 6.00049 42.1029 6.00049C43.2623 6.00049 44.2865 6.2517 45.1754 6.75411C46.0836 7.25653 46.7889 7.96184 47.2913 8.87006C47.7937 9.75895 48.0449 10.7928 48.0449 11.9715V22.1164H44.2478V12.8701C44.2478 12.1744 44.1126 11.5754 43.842 11.073C43.5715 10.5705 43.1947 10.1841 42.7116 9.91354C42.2478 9.62368 41.6971 9.47875 41.0594 9.47875C40.4411 9.47875 39.8903 9.62368 39.4073 9.91354C38.9242 10.1841 38.5473 10.5705 38.2768 11.073C38.0063 11.5754 37.871 12.1744 37.871 12.8701V22.1164H34.0739Z" fill="#232E35"/>
<path d="M22.8755 22.4643C21.3296 22.4643 19.919 22.1068 18.6436 21.3918C17.3876 20.6768 16.3827 19.701 15.6291 18.4643C14.8948 17.2276 14.5276 15.8169 14.5276 14.2324C14.5276 12.6478 14.8948 11.2372 15.6291 10.0005C16.3827 8.76378 17.3876 7.78793 18.6436 7.07295C19.8996 6.35798 21.3103 6.00049 22.8755 6.00049C24.4214 6.00049 25.8223 6.35798 27.0784 7.07295C28.3344 7.78793 29.3296 8.76378 30.0639 10.0005C30.8175 11.2179 31.1943 12.6285 31.1943 14.2324C31.1943 15.8169 30.8175 17.2276 30.0639 18.4643C29.3103 19.701 28.3054 20.6768 27.0494 21.3918C25.7934 22.1068 24.4021 22.4643 22.8755 22.4643ZM22.8755 18.986C23.7257 18.986 24.4697 18.7831 25.1074 18.3773C25.7644 17.9715 26.2765 17.4111 26.6436 16.6962C27.0301 15.9619 27.2233 15.1406 27.2233 14.2324C27.2233 13.3048 27.0301 12.4932 26.6436 11.7976C26.2765 11.0826 25.7644 10.5222 25.1074 10.1164C24.4697 9.69131 23.7257 9.47875 22.8755 9.47875C22.0059 9.47875 21.2426 9.69131 20.5856 10.1164C19.9286 10.5222 19.4069 11.0826 19.0204 11.7976C18.6533 12.4932 18.4697 13.3048 18.4697 14.2324C18.4697 15.1406 18.6533 15.9619 19.0204 16.6962C19.4069 17.4111 19.9286 17.9715 20.5856 18.3773C21.2426 18.7831 22.0059 18.986 22.8755 18.986Z" fill="#232E35"/>
<path d="M5.6384 22.1164V4.00048H0.0441895V0.522217H15.1167V4.00048H9.60942V22.1164H5.6384Z" fill="#232E35"/>
<rect x="65.8713" y="17.7332" width="4.3833" height="4.3833" fill="#232E35"/>
</svg>
